<svg
   fill="#fff"
   xmlns:dc="http://purl.org/dc/elements/1.1/"
   xmlns:cc="http://creativecommons.org/ns#"
   xmlns:rdf="http://www.w3.org/1999/02/22-rdf-syntax-ns#"
   xmlns:svg="http://www.w3.org/2000/svg"
   xmlns="http://www.w3.org/2000/svg"
   xmlns:xlink="http://www.w3.org/1999/xlink"
   xml:space="preserve"
   enable-background="new 0 0 1024 768"
   viewBox="0 0 1024 768"
   y="0px"
   x="0px"
   id="Ebene_1"
   version="1.1"><metadata
   id="metadata35">
  <rdf:RDF>
    <cc:Work
       rdf:about="">
      <dc:format>image/svg+xml</dc:format>
      <dc:type
         rdf:resource="http://purl.org/dc/dcmitype/StillImage" />
      <dc:title></dc:title>
    </cc:Work>
  </rdf:RDF>
</metadata>
<defs
   id="defs33" />

<g
   id="g10">
	<defs
   id="defs3">
		<rect
   height="617.012"
   width="971.218"
   y="75.408"
   x="25.988"
   id="SVGID_1_" />

	</defs>

	<clipPath
   id="SVGID_2_">
		<use
   id="use5"
   overflow="visible"
   xlink:href="#SVGID_1_" />

	</clipPath>

	<path
   id="path8"
   d="M304.062,237.34c0-102.464-65.417-161.933-165.595-161.933H27.764v50.735l59.015,0.039l0,0   h48.488c64.957,0,107.955,38.882,107.955,111.159c0,73.192-42.082,112.075-107.955,112.075h-15.383l0,0h-92.12v50.778h110.703   C238.645,400.193,304.062,339.809,304.062,237.34"
   clip-path="url(#SVGID_2_)" />

</g>

<rect
   id="rect12"
   height="54.205"
   width="255.524"
   y="76.468"
   x="371.205" />

<rect
   id="rect14"
   height="54.205"
   width="255.524"
   y="343.721"
   x="371.205" />

<rect
   id="rect16"
   height="54.205"
   width="255.524"
   y="210.152"
   x="371.205" />

<g
   id="g26">
	<defs
   id="defs19">
		<rect
   height="617.012"
   width="971.218"
   y="75.408"
   x="25.988"
   id="SVGID_3_" />

	</defs>

	<clipPath
   id="SVGID_4_">
		<use
   id="use21"
   overflow="visible"
   xlink:href="#SVGID_3_" />

	</clipPath>

	<path
   id="path24"
   d="M859.488,666.674c0,0,25.014,25.746,70.443,25.746c42.547,0,67.274-25.212,67.274-55.206   c0-60.241-96.024-52.014-96.024-85.457c0-13.271,13.509-22.558,30.758-22.558c25.594,0,45.139,16.454,45.139,16.454l16.104-27.866   c0,0-20.703-20.168-60.95-20.168c-39.106,0-68.433,23.353-68.433,54.667c0,57.861,96.321,52.022,96.321,85.727   c0,15.396-14.093,22.827-29.613,22.827c-28.751,0-50.891-19.908-50.891-19.908L859.488,666.674z M680.369,689.236h37.09v-82.277   h26.451l50.029,82.277h41.684l-61.237-98.202v-0.525l57.789-89.71h-40.247l-48.018,76.704h-26.451v-76.704h-37.09V689.236z    M451.798,594.223c0,55.467,43.126,98.197,105.516,98.197c52.04,0,80.216-30.52,80.216-30.52l-19.554-24.687   c0,0-23.859,23.887-59.226,23.887c-42.549,0-68.715-31.58-68.715-67.408c0-35.033,25.302-64.759,68.428-64.759   c32.487,0,55.776,19.904,55.776,19.904l17.829-25.478c0,0-25.589-25.741-75.33-25.741   C496.649,497.619,451.798,539.551,451.798,594.223 M246.798,593.692c0-37.157,29.9-64.759,67.278-64.759   s67.278,27.602,67.278,64.759c0,38.747-29.9,67.408-67.278,67.408S246.798,632.439,246.798,593.692 M208.561,593.692   c0,55.467,45.425,98.728,105.516,98.728s105.521-43.261,105.521-98.728c0-53.877-45.43-96.073-105.521-96.073   S208.561,539.815,208.561,593.692 M63.076,589.18v-58.921h28.176c29.04,0,37.377,11.146,37.377,29.195   c0,18.844-12.361,29.726-32.2,29.726H63.076z M25.988,689.236h37.088v-70.332h35.653l40.542,70.332h41.404l-41.983-70.332   c-4.024-6.638-6.898-9.292-6.898-9.292v-0.529c21.563-7.963,34.506-28.926,34.506-51.483c0-24.947-12.942-43.001-33.356-51.493   c-8.912-3.709-18.974-5.308-41.116-5.308H25.988V689.236z"
   clip-path="url(#SVGID_4_)" />

</g>

<polygon
   id="polygon28"
   points="990.271,395.851 691.295,262.831 691.295,211.859 990.271,78.843 990.271,147.837 774.583,236.725 774.583,237.969   990.271,326.857 " />

</svg>
